<?xml version="1.0" encoding="UTF-8" standalone="no"?>
<svg
   width="300"
   height="400"
   id="svg2"
   sodipodi:version="0.32"
   inkscape:version="1.2.2 (b0a8486541, 2022-12-01)"
   sodipodi:docname="Blason_ville_fr_Cléry-le-Grand_(Meuse)_rose.svg"
   inkscape:output_extension="org.inkscape.output.svg.inkscape"
   version="1.0"
   xmlns:inkscape="http://www.inkscape.org/namespaces/inkscape"
   xmlns:sodipodi="http://sodipodi.sourceforge.net/DTD/sodipodi-0.dtd"
   xmlns="http://www.w3.org/2000/svg"
   xmlns:svg="http://www.w3.org/2000/svg"
   xmlns:rdf="http://www.w3.org/1999/02/22-rdf-syntax-ns#"
   xmlns:cc="http://creativecommons.org/ns#"
   xmlns:dc="http://purl.org/dc/elements/1.1/">
  <metadata
     id="metadata28">
    <rdf:RDF>
      <cc:Work
         rdf:about="">
        <dc:format>image/svg+xml</dc:format>
        <dc:type
           rdf:resource="http://purl.org/dc/dcmitype/StillImage" />
        <dc:title />
      </cc:Work>
    </rdf:RDF>
  </metadata>
  <sodipodi:namedview
     inkscape:window-height="1177"
     inkscape:window-width="2154"
     inkscape:pageshadow="2"
     inkscape:pageopacity="0.0"
     guidetolerance="10.0"
     gridtolerance="10.0"
     objecttolerance="10.0"
     borderopacity="1.0"
     bordercolor="#666666"
     pagecolor="#ffffff"
     id="base"
     showgrid="false"
     inkscape:zoom="1"
     inkscape:cx="371"
     inkscape:cy="237.5"
     inkscape:window-x="585"
     inkscape:window-y="229"
     inkscape:current-layer="rose"
     inkscape:object-nodes="true"
     inkscape:window-maximized="0"
     inkscape:object-paths="false"
     inkscape:showpageshadow="0"
     inkscape:pagecheckerboard="1"
     inkscape:deskcolor="#d1d1d1" />
  <defs
     id="defs4" />
  <g
     id="rose"
     inkscape:groupmode="layer"
     style="stroke:#000000;stroke-linecap:round;stroke-linejoin:round"
     transform="translate(-148.80091,-218.81146)">
    <g
       id="stem-and-leaves">
      <path
         sodipodi:nodetypes="cccccssccccccccsccccccccccc"
         id="stem"
         d="m 320.83918,362.86689 8.14303,11.2913 c 11.72449,18.67202 13.79999,37.34403 0.47034,56.01605 -3.5967,0.42379 -6.29018,-9.08781 -9.38143,-14.22394 -0.90716,9.72582 1.84559,18.92879 -2.80468,29.18934 -7.77514,9.12201 -14.75738,19.77975 -22.51069,30.61892 -7.52379,10.5183 -14.15986,24.59391 -20.0338,39.50465 -3.62678,9.20643 -4.17417,13.42501 -3.42066,18.81365 -11.12042,-12.00845 -12.32678,-11.00468 -14.66848,-11.49106 4.92068,10.01052 13.03973,22.86403 13.38573,28.80817 6.01722,34.9963 27.8155,43.90968 32.28251,52.80647 1.94744,-3.39934 15.1712,0.37715 22.87568,0.64138 -7.34492,-7.94827 -14.16641,-11.70906 -20.95156,-15.17919 -7.60768,-18.82767 -4.03512,-18.64893 -6.03867,-27.94959 -2.18197,5.21041 -1.65285,18.01185 -6.57502,15.54969 -9.32177,-7.4827 -11.84235,-33.17465 -11.33095,-45.75136 0.19827,-4.87621 -0.75527,-20.75924 16.03436,-42.75829 10.76048,-6.84167 16.56156,-8.80835 24.7998,-13.25506 -2.86622,-2.26478 -9.44827,-0.81372 -15.60677,0.21379 9.70868,-18.39853 23.80048,-27.65606 32.49629,-43.39966 8.37759,-9.92901 17.70545,-17.00724 27.79288,-21.80672 -6.6543,1.6094 -10.30507,1.21645 -20.09639,4.9172 2.49365,-10.32278 4.1696,-21.33746 -0.64137,-37.84108 5.5684,-7.30332 4.56096,-18.52848 11.33094,-29.07563 -4.1522,-0.97496 -12.49651,14.6448 -17.3171,13.46886 l -3.45073,-6.68135 z"
         style="fill:#5ab532;stroke-width:3" />
      <g
         id="thorn-bases"
         style="fill:none;stroke-width:1.5">
        <path
           sodipodi:nodetypes="cc"
           id="path3145"
           d="m 339.07317,361.97478 c -1.98945,7.52674 1.17761,12.04553 5.98616,15.60677" />
        <path
           style="fill:none;stroke-width:1.5"
           d="m 338.00421,432.31215 c 1.0989,-6.57265 -0.80037,-15.0727 7.69649,-16.88952"
           id="path3147" />
        <path
           sodipodi:nodetypes="cc"
           id="path3149"
           d="m 317.26644,445.13964 c 4.44907,-2.92427 9.35095,-3.43358 12.18611,-14.9654" />
        <path
           sodipodi:nodetypes="cc"
           id="path3151"
           d="m 296.31489,488.75308 c 0.68116,-6.73028 5.24355,-9.57932 9.19303,-13.04127" />
        <path
           sodipodi:nodetypes="cc"
           id="path3153"
           d="m 271.30129,534.07686 c 2.30474,7.29033 1.53885,12.87475 -1.28275,17.31711" />
        <path
           sodipodi:nodetypes="cc"
           id="path3155"
           d="m 304.22517,589.66263 c -5.93222,-0.0301 -11.18895,-1.66453 -12.61369,-12.3999" />
      </g>
      <g
         id="leaf-bases"
         style="fill:#5ab532;stroke-width:2">
        <path
           d="m 351.04549,400.24344 c 4.40103,-4.78958 7.45028,-7.0164 11.97232,-5.34478 3.95967,0.91541 7.22752,0.7931 10.04819,0 l -1.71033,-2.35171 c 3.46259,1.15282 6.96795,2.39116 8.76545,0.21379 l -0.42758,-2.56549 6.19995,0.64137 -1.49654,-2.13791 c 2.94931,0.19752 5.86341,0.32462 7.69649,-1.71033 l -3.63446,-0.85517 c 3.39249,-0.75573 6.44111,-1.16759 10.90336,-2.99308 l -4.06203,-1.71033 c 3.19877,-1.11998 5.81619,-0.78657 10.04819,-4.48962 l -3.84824,-0.42758 c 2.9301,-1.41699 5.95362,-2.74056 8.33786,-4.70341 l -3.84824,-0.85517 c 3.95932,-1.15176 9.85451,-3.78501 8.14926,-2.96966 -1.41649,0.67727 -1.15061,-2.48785 7.02993,-5.582 -5.9149,-1.14022 -11.82979,-7.56902 -17.74469,-3.42066 v -3.84824 l -6.62753,2.13791 2.3517,-2.77929 -8.12407,2.77929 2.77929,-3.42066 c -2.73654,0.4133 -5.31369,1.30478 -7.4827,3.42066 l 1.06896,-3.63445 c -2.07164,0.37629 -4.20768,1.01014 -6.84133,3.63445 l 0.42758,-2.5655 -5.98616,2.99308 0.42759,-2.99308 -4.48962,4.70341 v -2.13791 l -4.27583,4.70341 0.42758,-3.20687 -4.9172,8.76545 -0.64137,-3.42066 c -2.25745,1.87585 -3.57405,4.69256 -4.70342,7.69649 l -0.42758,-3.42067 c -1.76313,0.61936 -2.72633,3.37185 -2.77929,8.55166 l -2.3517,-2.13791 c -1.01695,1.7007 -1.10433,3.86618 1.28275,7.2689 -5.02722,-3.16273 1.87534,8.07957 -7.26891,17.31711 -2.12544,2.14713 -3.8315,3.68261 -6.66019,2.7851 1.24534,4.4134 -2.41704,8.31964 7.08777,13.24925 -0.37742,-5.92334 1.10611,-10.5663 5.34479,-15.17919 z"
           id="path10267"
           sodipodi:nodetypes="scccccccccccccccsccccccccccccccccccccccccsccs" />
        <path
           sodipodi:nodetypes="ccccccccccccccccccccccccccccccccccccccccccccccccccc"
           id="path3157"
           d="m 282.68026,558.34553 -7.10314,-10.37223 c 5.2294,-1.65604 9.94351,-4.34267 13.46886,-9.40682 l -1.28275,-8.76545 h 2.5655 l -2.77929,-6.41374 3.42066,0.64138 -1.49654,-5.131 3.63446,0.42759 3.20687,-6.19996 2.77929,-0.64137 2.99308,-4.48962 4.06203,0.21379 4.06204,-4.70341 6.41374,-0.64137 2.77929,-2.35171 3.20687,1.92412 5.13099,-1.71033 1.28275,1.49654 4.27583,-0.85516 -0.42758,1.28275 5.13099,-0.85517 v 1.49654 l 4.70341,0.42758 0.64138,1.49654 3.63445,-0.42758 0.21379,1.28275 5.131,1.71033 c 2.50365,2.03662 8.10509,2.00804 12.18611,2.99308 -4.27969,2.59549 -6.99665,5.41422 -14.9654,7.4827 l 1.92412,1.28275 -4.27583,0.85516 0.64138,2.5655 -4.91721,0.21379 2.99308,2.5655 -6.84132,0.85516 2.13791,1.92413 -7.4827,-0.85517 1.92413,3.42066 -5.98616,0.21379 2.3517,1.92413 -7.05511,-0.42759 2.13791,2.99308 -6.19995,-2.13791 1.06896,3.20687 -7.69649,-1.92412 1.92412,3.84824 -7.69649,-1.28274 1.06895,2.77928 c -4.31363,-2.33621 -14.65559,1.66907 -16.88952,-0.42758 -3.54953,5.77637 -11.52186,3.59172 -10.00017,18.4963 z" />
        <path
           sodipodi:nodetypes="csscccccccccccccccccccccccccccccccccscc"
           id="path3185"
           d="m 284.67144,492.76497 c 9.86507,-5.41742 8.35324,-14.50147 7.36762,-26.0324 -0.118,-1.38055 -0.94797,-2.59418 1.49654,-5.55858 4.20285,-5.09669 2.28993,-9.35456 2.3517,-13.89644 l -2.3517,0.21379 0.64137,-7.91028 h -3.20687 l -0.42758,-6.19995 -2.99308,1.49654 -1.92412,-5.98616 -1.71033,2.13792 -3.63446,-6.62754 -0.21379,3.63446 -7.26891,-7.91029 0.42759,2.99308 -10.26199,-6.41374 -0.64138,2.77929 c -3.36506,-7.99295 -26.51013,-8.40913 -37.62728,-6.62753 4.28662,2.84189 6.71016,1.0261 13.04127,8.97923 l -1.92412,1.49654 3.63445,2.77929 -2.56549,0.21379 5.77236,5.55858 h -4.48961 c 2.92181,2.39513 5.84363,4.13437 8.76544,5.98616 l -4.70341,0.42758 8.33787,5.34479 -5.34479,0.64137 7.69649,4.70341 -3.63445,0.85517 c 1.78693,2.13258 4.31122,3.5278 6.62753,5.13099 l -4.06204,0.64138 c 3.04823,2.89891 6.93489,3.28252 11.11716,2.77929 l -3.63446,1.71033 9.83441,3.84824 -4.70341,1.49654 c 4.07269,0.82653 8.00022,2.16561 11.75853,0.64138 3.72404,-1.51033 9.84086,-4.45226 12.18611,6.84132 1.00904,6.98639 -1.41389,13.40078 -3.73317,19.83245 z" />
      </g>
      <g
         id="leaf-details"
         style="fill:none;stroke-width:1.5">
        <path
           sodipodi:nodetypes="ccc"
           id="path3159"
           d="m 302.08726,534.71824 -6.84133,-0.64138 c 17.22912,-19.42952 36.81984,-22.32785 56.86851,-22.02051" />
        <path
           id="path3161"
           d="m 299.73555,519.11146 -0.64137,5.55858" />
        <path
           id="path3163"
           d="m 307.21825,514.83564 -0.64138,5.13099" />
        <path
           id="path3165"
           d="m 313.84578,510.98739 -1.06895,5.55858" />
        <path
           id="path3167"
           d="m 322.18365,507.35294 -0.85517,5.98616" />
        <path
           id="path3169"
           d="m 329.23876,507.56673 -0.21379,3.63445" />
        <path
           id="path3171"
           d="m 335.01113,509.91843 0.42758,-3.63445" />
        <path
           id="path3173"
           d="m 341.21108,517.82872 -4.48962,-2.35171" />
        <path
           id="path3175"
           d="m 335.8663,520.39421 -5.131,-3.63445" />
        <path
           id="path3177"
           d="m 332.23184,523.38729 -8.55165,-4.48962" />
        <path
           id="path3179"
           d="m 322.18365,525.31141 -6.19995,-3.42066" />
        <path
           id="path3181"
           d="m 315.7699,528.0907 -6.19995,-2.99308" />
        <path
           id="path3183"
           d="m 310.21133,531.29757 -5.77237,-1.28274" />
        <path
           sodipodi:nodetypes="cc"
           id="path3187"
           d="M 286.0529,456.47058 C 277.23753,440.28089 262.657,427.5503 242.43945,418.20192" />
        <path
           sodipodi:nodetypes="cc"
           id="path3189"
           d="m 270.87371,451.98096 c 3.52571,-3.37362 7.83254,-1.27935 11.87955,-1.00389" />
        <path
           sodipodi:nodetypes="cc"
           id="path3191"
           d="m 260.82551,444.49826 c 5.98333,-4.4632 10.20944,-1.89749 15.1791,-2.30599" />
        <path
           sodipodi:nodetypes="cc"
           id="path3193"
           d="m 259.32897,438.7259 c 6.18241,-2.08844 7.7302,-1.39611 11.38488,-1.96792" />
        <path
           sodipodi:nodetypes="cc"
           id="path3195"
           d="m 253.98419,433.5949 c 2.03609,-1.36405 4.86272,-2.33283 11.41379,-1.4394" />
        <path
           sodipodi:nodetypes="cc"
           id="path3197"
           d="m 248.42561,428.25012 c 1.67831,-2.77374 5.62322,-1.76981 8.87962,-1.9134" />
        <path
           sodipodi:nodetypes="cc"
           id="path3199"
           d="m 268.94959,423.7605 c -2.93209,1.93472 -2.57057,5.51625 -3.44703,8.47878" />
        <path
           sodipodi:nodetypes="cc"
           id="path3201"
           d="m 274.93575,429.74666 c -2.23021,2.00675 -2.47554,5.00593 -3.67698,7.52706" />
        <path
           id="path3203"
           d="m 280.70811,434.87765 -5.85955,6.03933" />
        <path
           id="path3205"
           d="m 284.77015,440.22244 -4.80166,6.81007" />
        <path
           id="path3207"
           d="m 290.32873,445.78101 -5.34479,4.06204" />
        <path
           id="path3209"
           d="m 257.17721,426.25403 4.07589,-3.3487" />
        <path
           sodipodi:nodetypes="csc"
           id="path3211"
           d="m 354.25236,389.12629 c 0,0 17.94927,-15.31319 35.48937,-19.24123 6.05642,-1.35631 19.66881,-6.41374 19.66881,-6.41374" />
        <path
           id="path3213"
           d="m 365.5833,376.5126 0.21379,-3.42067" />
        <path
           id="path3215"
           d="M 371.99704,371.59539 373.066,366.4644" />
        <path
           id="path3217"
           d="m 380.12112,368.81611 2.99308,-5.77237" />
        <path
           id="path3219"
           d="m 388.24519,364.96786 2.5655,-4.06204" />
        <path
           id="path3221"
           d="m 395.5141,363.25753 3.20687,-3.42066" />
        <path
           id="path3223"
           d="m 405.5623,367.53336 -5.77747,-0.66083" />
        <path
           id="path3225"
           d="m 399.36234,372.02298 -5.0991,-3.37127" />
        <path
           id="path3227"
           d="m 393.16239,375.44364 -10.31101,-3.4823" />
        <path
           id="path3229"
           d="m 386.96244,380.14705 -7.69649,-2.99308" />
        <path
           id="path3231"
           d="m 379.69354,382.07117 -8.12408,-0.85516" />
        <path
           id="path3233"
           d="m 373.92117,386.77458 -8.97924,-0.85516" />
      </g>
    </g>
    <path
       style="fill:#e20909;stroke-width:3"
       d="m 320.47152,363.00625 8.51069,11.15194 c -5.92747,15.03751 -15.50933,21.48554 -23.77491,27.48787 -12.81233,9.30412 -24.57472,16.01647 -35.38173,14.45141 -4.98329,-0.72167 -6.47762,-5.75787 -13.33097,-7.60305 -19.88773,-5.35452 -41.77536,-3.93012 -36.68401,-29.34721 -7.98851,1.12027 -16.94734,-2.53271 -22.30388,-14.08666 -5.97507,-12.8881 -17.19159,-15.59128 -17.02138,-21.12999 0.25796,-8.39405 -2.21962,-12.20021 -0.58694,-18.48874 0.90407,-3.48216 0.15893,-5.08189 -2.34778,-13.49971 -3.20664,-10.76824 6.94076,-8.55648 10.565,-12.6193 -3.59522,-3.49756 6.06503,-6.39079 4.98902,-13.49972 3.25559,-1.64188 3.06071,-6.26169 7.83009,-11.79403 2.24963,-2.60951 6.60218,-0.19858 10.36518,-5.81429 l 7.3368,-11.44542 c 2.16583,-5.10867 3.07514,-10.41935 8.53594,-5.09395 6.49747,-8.1484 14.04673,-5.21851 15.31498,-3.22819 14.29472,-28.78337 27.63415,-10.31154 24.57198,-2.53632 5.07645,-16.12265 24.78701,-17.40632 29.93415,-3.81514 5.79358,2.45558 10.5909,8.8962 15.26055,15.84749 -1.52443,-7.83288 8.85903,-24.34628 23.77124,-15.55402 16.83082,-4.91937 11.01985,12.372 -2.34778,23.77124 -1.80668,9.93221 -4.064,19.41377 -1.46736,33.74929 10.28286,-3.83953 22.37443,-7.87138 33.10399,-5.33692 2.43598,0.5754 9.94997,2.9971 3.28655,7.97817 -1.48623,2.84633 -0.97076,5.51924 -2.0038,7.09776 -6.49169,9.9195 -2.32771,6.97791 -2.10481,10.51057 0.23975,3.7996 1.64553,6.80225 -0.29347,10.56499 -4.1827,8.11674 -10.33823,16.29122 -25.82555,23.1843 -5.46889,2.43409 -7.4986,5.1779 -17.90179,9.09763 z"
       id="flower-base"
       sodipodi:nodetypes="ccssscssssccsccccccccccscssssc" />
    <g
       id="petal-details"
       style="fill:none;stroke-width:2">
      <path
         sodipodi:nodetypes="cc"
         id="path3099"
         d="m 180.01236,343.80251 c 10.78213,-2.29645 21.93532,-5.75911 28.86184,4.06204" />
      <path
         sodipodi:nodetypes="cssssc"
         id="path3101"
         d="m 219.81059,379.14721 c 0,0 4.64774,2.28522 11.93929,-2.8484 5.66389,-3.98766 13.712,-2.16442 23.08947,0 3.67922,0.8492 8.44349,-2.68177 11.75853,-4.48962 5.80005,-3.16304 11.5158,1.38701 17.74469,-13.04128 1.615,-3.7409 11.97232,-6.41374 11.97232,-6.41374" />
      <path
         sodipodi:nodetypes="cc"
         id="path3103"
         d="m 266.81167,371.80919 c 2.088,-14.26505 10.1682,-14.83364 15.82057,-20.95156" />
      <path
         sodipodi:nodetypes="cc"
         id="path3105"
         d="m 251.84627,393.18833 c 11.82114,-1.72629 24.19792,0.62218 34.42042,-12.82749" />
      <path
         sodipodi:nodetypes="cc"
         id="path3107"
         d="m 320.47152,363.00625 c -10.21552,4.48102 -16.97564,3.34704 -22.66009,0.46507"
         style="stroke-width:3" />
      <path
         sodipodi:nodetypes="cccccssc"
         id="path3109"
         d="m 188.11561,299.32281 c 2.47029,6.62174 5.90132,11.32199 5.15182,24.38331 -2.58645,9.14947 5.64793,13.59423 16.03436,17.10331 2.08049,-5.28615 7.75637,-9.22402 5.77236,-16.03435 5.01608,5.06682 9.43159,5.32912 13.89644,5.98616 2.28982,4.01754 7.74353,3.48658 10.03071,7.50906 9.79039,17.21842 53.44235,10.20825 57.31359,-8.79181 2.35272,-11.54717 5.77124,-9.91585 8.97924,-11.97232" />
      <path
         sodipodi:nodetypes="ccccssc"
         id="path3111"
         d="m 228.97059,330.76124 c 11.70957,-3.09698 21.88538,-6.43257 23.51705,-16.24815 9.69229,4.91841 24.78648,1.88412 34.42043,-4.06204 10.92297,-7.01064 20.48974,-7.24026 29.717,-5.77236 -9.03252,3.00196 -12.13977,4.61545 -14.11023,6.84132 -7.62831,8.61708 -14.00173,8.1519 -20.73777,7.91028 -5.12677,-0.1839 -9.79836,0.72206 -17.10331,-1.92412" />
      <path
         sodipodi:nodetypes="cc"
         id="path3113"
         d="m 300.37692,299.76148 c -8.63136,-7.33528 -15.75025,-15.54621 -13.68265,-29.07563" />
      <path
         sodipodi:nodetypes="cc"
         id="path3115"
         d="m 261.68068,307.88556 c -1.73293,-11.73585 5.66253,-23.03702 15.82056,-34.20663" />
      <path
         sodipodi:nodetypes="cc"
         id="path3117"
         d="m 312.2543,257.94324 c 2.94853,7.57775 3.98694,17.76022 -5.46363,42.24583" />
      <path
         sodipodi:nodetypes="cc"
         id="path3119"
         d="m 332.2104,299.90975 c 2.24825,12.92202 -3.01386,23.77222 -17.29566,32.13423" />
      <path
         sodipodi:nodetypes="cc"
         id="path3121"
         d="m 327.31464,329.47849 c 10.88192,-1.1802 16.25545,-8.97047 24.37222,-13.46886" />
      <path
         sodipodi:nodetypes="cc"
         id="path3123"
         d="m 333.67776,266.16046 c -12.78311,9.35813 -19.22405,24.82352 -16.62511,48.994" />
      <path
         sodipodi:nodetypes="cc"
         id="path3125"
         d="m 336.02554,242.38922 c -11.31499,16.21831 -7.45339,21.21121 -8.20613,28.97972" />
      <path
         sodipodi:nodetypes="cc"
         id="path3127"
         d="m 215.07415,324.77508 c 18.72793,3.48644 23.96192,-12.11249 37.41349,-10.26199" />
      <path
         sodipodi:nodetypes="cc"
         id="path3129"
         d="m 242.48762,248.44721 c 2.17181,1.94688 4.71324,3.52414 3.58629,8.76978" />
      <path
         sodipodi:nodetypes="cc"
         id="path3131"
         d="m 211.2999,268.21477 c 9.38224,-2.81073 22.97267,-4.41913 28.14647,-8.43228" />
      <path
         sodipodi:nodetypes="cscc"
         id="path3133"
         d="m 230.45392,323.10292 c -3.91335,-4.95404 -13.48944,-8.10986 -16.58523,-12.76255 -6.19302,-9.30755 -17.50991,-12.80412 -13.11856,-24.90291 -11.62347,16.41743 11.49196,26.3269 19.6785,39.84751" />
      <path
         sodipodi:nodetypes="cc"
         id="path3135"
         d="m 209.28396,304.91254 c 22.80837,-32.35196 37.2972,-29.15679 54.32084,-36.79219" />
      <path
         sodipodi:nodetypes="csscccscc"
         id="path3137"
         d="m 226.71739,319.72339 c 3.2954,-3.14535 1.72686,-8.12726 1.39804,-12.26542 -1.05651,-13.29589 6.3087,-18.23009 16.03435,-20.95155 7.82092,-2.18848 20.66643,-13.11238 30.99976,-19.66881 -13.19776,-5.6297 -26.03824,-12.17495 -48.10307,4.9172 -8.71,6.13252 -20.1473,4.99883 -26.29634,13.68265 5.00163,-3.0239 9.11161,-0.98645 11.76018,-0.86601 11.64236,0.52943 13.13641,-4.50009 15.69733,-13.70077 4.17628,5.95494 11.37159,4.86547 18.91717,2.95872" />
      <path
         sodipodi:nodetypes="ccscc"
         id="path3139"
         d="m 275.14954,266.83761 c 3.20486,0.54149 5.7662,3.33533 11.11715,-3.63446 2.61425,-4.76444 -1.76608,-5.50896 -3.84824,-8.97924 -1.8295,-3.04917 -8.69419,-10.52212 -13.04128,-0.64137 -5.91372,-3.33365 -10.02911,0.97564 -13.68129,7.25356" />
      <path
         sodipodi:nodetypes="cc"
         id="path3141"
         d="m 219.07578,255.69543 c 0.10165,2.56359 0.92265,4.40783 1.55695,6.43877" />
    </g>
  </g>
</svg>
