<?xml version="1.0" encoding="UTF-8" standalone="no"?>
<svg
   height="240"
   width="240"
   version="1.0"
   id="svg2"
   sodipodi:version="0.32"
   inkscape:version="1.2.2 (1:1.2.2+202212051550+b0a8486541)"
   sodipodi:docname="Blason_ville_fr_Margaux_(Gironde).svg"
   inkscape:export-filename="C:\Users\Henry\Pictures\Mes images\Blas\Blasons\Nouveaux\Blason 33 Margaux.png"
   xmlns:inkscape="http://www.inkscape.org/namespaces/inkscape"
   xmlns:sodipodi="http://sodipodi.sourceforge.net/DTD/sodipodi-0.dtd"
   xmlns:xlink="http://www.w3.org/1999/xlink"
   xmlns="http://www.w3.org/2000/svg"
   xmlns:svg="http://www.w3.org/2000/svg"
   xmlns:rdf="http://www.w3.org/1999/02/22-rdf-syntax-ns#"
   xmlns:cc="http://creativecommons.org/ns#"
   xmlns:dc="http://purl.org/dc/elements/1.1/">
  <metadata
     id="metadata49">
    <rdf:RDF>
      <cc:Work
         rdf:about="">
        <dc:format>image/svg+xml</dc:format>
        <dc:type
           rdf:resource="http://purl.org/dc/dcmitype/StillImage" />
        <dc:title />
        <dc:date>03-AUG-2006</dc:date>
        <dc:creator>
          <cc:Agent>
            <dc:title>Jérôme BLUM (wagner51)</dc:title>
          </cc:Agent>
        </dc:creator>
        <cc:license
           rdf:resource="http://web.resource.org/cc/PublicDomain" />
        <dc:language>fr</dc:language>
        <dc:subject>
          <rdf:Bag>
            <rdf:li>gabarit modèle blason projet wikipédia</rdf:li>
          </rdf:Bag>
        </dc:subject>
      </cc:Work>
      <cc:License
         rdf:about="http://web.resource.org/cc/PublicDomain">
        <cc:permits
           rdf:resource="http://web.resource.org/cc/Reproduction" />
        <cc:permits
           rdf:resource="http://web.resource.org/cc/Distribution" />
        <cc:permits
           rdf:resource="http://web.resource.org/cc/DerivativeWorks" />
      </cc:License>
    </rdf:RDF>
  </metadata>
  <sodipodi:namedview
     inkscape:window-height="1145"
     inkscape:window-width="1920"
     inkscape:pageshadow="2"
     inkscape:pageopacity="0.0"
     guidetolerance="10.0"
     gridtolerance="10.0"
     objecttolerance="10.0"
     borderopacity="1.0"
     bordercolor="#666666"
     pagecolor="#ffffff"
     id="base"
     showgrid="false"
     height="660px"
     inkscape:zoom="3"
     inkscape:cx="162.66667"
     inkscape:cy="137.5"
     inkscape:window-x="0"
     inkscape:window-y="31"
     inkscape:current-layer="g5212"
     inkscape:window-maximized="1"
     inkscape:showpageshadow="0"
     inkscape:pagecheckerboard="1"
     inkscape:deskcolor="#d1d1d1">
    <inkscape:grid
       type="xygrid"
       id="grid4240"
       empspacing="5"
       visible="true"
       enabled="true"
       snapvisiblegridlinesonly="true" />
  </sodipodi:namedview>
  <defs
     id="defs6" />
  <g
     id="g5212"
     transform="translate(-176.39759,-7.7113966)"
     style="fill:none;stroke:#000;stroke-width:3;stroke-linecap:round;stroke-linejoin:round;">
    <path
       inkscape:connector-curvature="0"
       d="m 271.34641,105.784 c -18.66428,-2.1221 -30.25723,2.43264 -60.57109,21.82998 5.29123,2.3931 11.54067,5.04043 21.71091,4.32781 15.37341,-2.08566 31.83193,-10.23277 38.86018,-26.15779 z"
       id="path8059"
       fill="#080" />
    <g
       transform="rotate(-6.3824073,-2069.0371,-5612.9117)"
       id="g6883">
      <path
         inkscape:connector-curvature="0"
         d="m -357.53968,429.24603 7.34126,0.39683 c 3.86828,1.06911 6.44996,4.11618 6.94445,5.85317 16.92697,30.78402 49.65993,0.17001 70.63492,-2.57936 -9.75803,-2.49321 -18.48043,-9.75623 -26.96941,-15.00592 -9.36828,-5.61841 -23.54214,-5.79135 -33.94329,-3.14885 -6.0656,2.81881 -7.70129,7.15421 -11.50793,10.71429 -1.55754,0.5419 -3.46726,0.47736 -5.55556,0.79365 l -7.14286,-0.19841 z"
         id="path6885"
         fill="#080" />
      <g
         id="g1863"
         style="stroke-width:2">
        <path
           inkscape:connector-curvature="0"
           d="m -342.30194,428.3303 c 3.64233,-4.55575 42.42444,2.27022 56.56223,3.71087"
           id="path6887" />
        <g
           transform="translate(-2)"
           id="g6889">
          <path
             inkscape:connector-curvature="0"
             d="m -333.92857,427.01389 c 2.59518,-3.80341 8.40491,-9.27712 12.69841,-11.90477"
             id="path6891" />
          <path
             inkscape:connector-curvature="0"
             d="m -325.92857,427.01389 c 2.59518,-3.80341 9.00015,-8.88029 13.29365,-11.50794"
             id="path6893" />
          <path
             inkscape:connector-curvature="0"
             d="m -318.32837,427.90675 c 2.59518,-3.80341 1.5207,-4.11485 12.5992,-10.8135"
             id="path6895" />
          <path
             inkscape:connector-curvature="0"
             d="m -310.88791,428.5764 c 3.64825,-3.5928 0.26137,-2.00561 11.21031,-8.73017"
             id="path6897" />
          <path
             inkscape:connector-curvature="0"
             d="m -302.25696,429.66767 c 3.29562,-3.56523 3.44951,-3.2665 9.3038,-4.14541"
             id="path6899" />
        </g>
        <g
           transform="matrix(0.988736,0.14967,0.14967,-0.988736,-69.5144,899.176)"
           id="g6901">
          <path
             inkscape:connector-curvature="0"
             d="m -333.92857,427.01389 c 2.59518,-3.80341 8.40491,-9.27712 12.69841,-11.90477"
             id="path6903" />
          <path
             inkscape:connector-curvature="0"
             d="m -326.21969,428.2742 c 2.59518,-3.80341 9.29127,-10.1406 13.58477,-12.76825"
             id="path6905" />
          <path
             inkscape:connector-curvature="0"
             d="m -318.79047,428.63949 c 2.59518,-3.80341 1.9828,-4.84759 13.0613,-11.54624"
             id="path6907" />
          <path
             inkscape:connector-curvature="0"
             d="m -311.25642,429.0223 c 3.64825,-3.5928 0.62988,-2.45151 11.57882,-9.17607"
             id="path6909" />
          <path
             inkscape:connector-curvature="0"
             d="m -302.11742,429.02391 c 3.61203,-4.59259 4.79973,-3.27634 9.67275,-4.74409"
             id="path6911" />
        </g>
      </g>
    </g>
    <use
       x="0"
       y="0"
       xlink:href="#g6883"
       id="use1004"
       transform="rotate(180,301.52398,196.57033)" />
    <path
       sodipodi:nodetypes="cccccssscsscc"
       inkscape:connector-curvature="0"
       d="m 288.27461,224.50279 c 4.35726,-9.19558 7.24546,-12.36856 10.4436,-27.53337 -1.64887,-15.0751 -9.70146,-27.66816 -14.68475,-41.45087 -4.17604,-10.8104 -9.3487,-21.98353 -14.16176,-33.02578 l 4.01312,-3.48439 c 4.61369,14.08479 12.43401,25.31904 17.66451,38.15026 0.30544,0.74929 5.55609,-4.83793 5.86573,-4.09879 0.24653,0.58853 -4.4488,7.50472 -4.19936,8.09021 3.89123,9.13342 8.14953,18.07824 13.19688,32.52223 -1.38702,10.42317 -5.25406,19.07274 -9.43087,27.05439 -0.57154,1.09223 13.93872,-0.41298 13.36113,0.65704 -0.67655,1.2533 -16.44102,5.07824 -17.10926,6.30955 z"
       id="path3298"
       fill="#080" />
    <path
       inkscape:connector-curvature="0"
       d="m 264.97533,116.08231 c 8.65561,14.43016 19.61464,20.18427 55.38846,31.13937 -0.75082,-5.06975 -1.80788,-10.95973 -8.30101,-17.80157 -10.77367,-9.79118 -27.92997,-17.04197 -47.08745,-13.3378 z"
       id="path8015"
       fill="#080" />
    <path
       inkscape:connector-curvature="0"
       d="m 265.38938,112.8624 c 13.74496,9.70699 26.09426,10.54648 63.24575,6.12518 -2.73382,-4.335 -6.07898,-9.29675 -14.78176,-12.93453 -13.80971,-4.60774 -32.433,-4.31435 -48.46399,6.80935 z"
       id="path8017"
       fill="#080" />
    <g
       transform="rotate(20,9.7857703,2035.206)"
       id="g8061"
       fill="#f99">
      <path
         inkscape:connector-curvature="0"
         d="m -440.55762,63.406658 c -34.39831,22.219961 -42.03301,70.908212 14.20141,23.413402 16.40088,-13.829597 7.23734,-36.031571 -14.20141,-23.413402 z"
         id="path8055" />
      <path
         inkscape:connector-curvature="0"
         d="m -466.91798,84.422731 c -19.1131,34.889229 2.25453,94.945569 21.61002,29.225969 8.51432,-19.691436 -10.26208,-46.717788 -21.61002,-29.225969 z"
         id="path8053" />
      <path
         inkscape:connector-curvature="0"
         d="m -419.22095,58.906012 c -22.83685,0.860382 -5.88181,92.911788 33.3807,30.650047 11.0308,-17.265682 -4.03534,-31.536267 -33.3807,-30.650047 z"
         id="path8051" />
      <path
         inkscape:connector-curvature="0"
         d="m -442.81104,85.217604 c 10.17114,21.232396 43.87035,34.525196 20.87267,-0.997569 -6.69458,-10.358672 -25.61077,-10.013271 -20.87267,0.997569 z"
         id="path8057" />
      <path
         inkscape:connector-curvature="0"
         d="m -428.70879,76.472054 c -16.05768,15.492941 -17.94349,49.775156 7.13447,18.475374 7.3164,-9.116696 1.35313,-26.027253 -7.13447,-18.475374 z"
         id="path8043" />
      <path
         inkscape:connector-curvature="0"
         d="m -396.42468,61.101536 c -26.24765,4.012656 -26.20541,88.938334 18.20572,30.238084 1.77919,-15.09906 4.29689,-23.913443 -18.20572,-30.238084 z"
         id="path8049" />
      <path
         inkscape:connector-curvature="0"
         d="m -389.68274,72.744534 c -15.42344,40.493546 -26.43419,105.707996 19.64292,32.541546 -2.72657,-28.246986 -11.81621,-48.321059 -19.64292,-32.541546 z"
         id="path8033" />
      <path
         inkscape:connector-curvature="0"
         d="m -409.52017,106.68677 c 8.55032,-16.673846 -5.22968,-39.236563 -14.3667,-14.1672 -3.14815,11.52372 9.46616,24.72817 14.3667,14.1672 z"
         id="path8041" />
      <path
         inkscape:connector-curvature="0"
         d="m -448.70943,103.33328 c 20.2342,12.03512 55.65116,4.42107 16.82028,-12.399258 -11.3136,-4.9114 -26.8669,5.86063 -16.82028,12.399258 z"
         id="path8047" />
      <path
         inkscape:connector-curvature="0"
         d="m -451.43991,120.8661 c 27.20869,31.77166 71.42071,-16.96235 5.46473,-17.54811 -4.28442,0.18543 -22.43231,5.4136 -5.46473,17.54811 z"
         id="path8039" />
      <path
         inkscape:connector-curvature="0"
         d="m -450.95646,151.30688 c 36.50903,15.62804 70.38876,-7.88279 2.8736,-36.6092 -23.26732,-7.14133 -49.57307,15.80907 -2.8736,36.6092 z"
         id="path8037" />
      <path
         inkscape:connector-curvature="0"
         d="m -414.35251,130.81984 c 5.01224,10.35781 29.37778,22.7261 44.05039,-22.2037 2.02276,-6.194 -1.78525,-12.084033 -5.66208,-17.337372 -7.17579,-18.337682 -63.2278,8.310866 -38.38831,39.541072 z"
         id="path8031" />
      <path
         inkscape:connector-curvature="0"
         d="m -448.89378,136.36094 c 1.51118,10.69116 28.46976,17.92945 36.35459,15.21425 3.84989,-1.32575 10.00604,-4.87038 12.2878,-7.21699 3.75647,-3.86326 4.92975,-20.49757 -4.21652,-30.70124 -6.22484,-6.9445 -14.18144,-5.97697 -19.60913,-2.784 -15.03301,7.08099 -27.29162,16.82322 -24.81674,25.48798 z"
         id="path8035" />
    </g>
  </g>
</svg>
